<svg xmlns="http://www.w3.org/2000/svg" xmlns:xlink="http://www.w3.org/1999/xlink" width="500" zoomAndPan="magnify" viewBox="0 0 375 74.999997" height="100" preserveAspectRatio="xMidYMid meet" version="1.0"><defs><g/></defs><g fill="#ffffff" fill-opacity="1"><g transform="translate(80.354682, 54.596305)"><g><path d="M 28.390625 0 L 26.859375 -5.15625 L 14.0625 -5.15625 L 12.53125 0 L 0.53125 0 L 13.859375 -36.515625 L 27.5 -36.515625 L 40.8125 0 Z M 16.5 -13.328125 L 24.421875 -13.328125 L 20.59375 -26.328125 L 20.375 -26.328125 Z M 16.5 -13.328125 "/></g></g></g><g fill="#ffffff" fill-opacity="1"><g transform="translate(118.617537, 54.596305)"><g><path d="M 35.140625 0 L 22.828125 0 L 17.515625 -8.8125 L 17.296875 -8.8125 L 11.9375 0 L 0.21875 0 L 10.984375 -14.859375 L 1.28125 -28.03125 L 13.6875 -28.03125 L 18.15625 -20.59375 L 18.359375 -20.59375 L 22.828125 -28.03125 L 34.5 -28.03125 L 24.625 -14.59375 Z M 35.140625 0 "/></g></g></g><g fill="#ffffff" fill-opacity="1"><g transform="translate(150.989645, 54.596305)"><g><path d="M 3.5625 -31.3125 L 3.5625 -38.484375 L 14.125 -38.484375 L 14.125 -31.3125 Z M 3.5625 0 L 3.5625 -28.03125 L 14.125 -28.03125 L 14.125 0 Z M 3.5625 0 "/></g></g></g><g fill="#ffffff" fill-opacity="1"><g transform="translate(165.636421, 54.596305)"><g><path d="M 16.5 -28.65625 C 20.257812 -28.65625 23.4375 -27.921875 26.03125 -26.453125 C 28.632812 -24.984375 29.9375 -22.710938 29.9375 -19.640625 L 20.109375 -19.640625 C 20.109375 -20.660156 19.648438 -21.382812 18.734375 -21.8125 C 18.097656 -22.164062 17.300781 -22.34375 16.34375 -22.34375 C 13.800781 -22.34375 12.53125 -21.742188 12.53125 -20.546875 C 12.53125 -19.867188 12.972656 -19.390625 13.859375 -19.109375 C 14.742188 -18.828125 16.191406 -18.523438 18.203125 -18.203125 C 20.679688 -17.847656 22.75 -17.429688 24.40625 -16.953125 C 26.070312 -16.472656 27.523438 -15.625 28.765625 -14.40625 C 30.003906 -13.1875 30.625 -11.476562 30.625 -9.28125 C 30.625 -5.707031 29.285156 -3.160156 26.609375 -1.640625 C 23.941406 -0.117188 20.453125 0.640625 16.140625 0.640625 C 13.660156 0.640625 11.320312 0.296875 9.125 -0.390625 C 6.9375 -1.085938 5.148438 -2.160156 3.765625 -3.609375 C 2.390625 -5.054688 1.703125 -6.894531 1.703125 -9.125 L 11.515625 -9.125 L 11.515625 -8.921875 C 11.554688 -7.710938 12.0625 -6.867188 13.03125 -6.390625 C 14 -5.910156 15.035156 -5.671875 16.140625 -5.671875 C 19.078125 -5.671875 20.546875 -6.363281 20.546875 -7.75 C 20.546875 -8.457031 20.082031 -8.96875 19.15625 -9.28125 C 18.238281 -9.601562 16.738281 -9.941406 14.65625 -10.296875 C 12.132812 -10.722656 10.066406 -11.179688 8.453125 -11.671875 C 6.847656 -12.171875 5.441406 -13.007812 4.234375 -14.1875 C 3.035156 -15.375 2.4375 -17.03125 2.4375 -19.15625 C 2.4375 -22.59375 3.738281 -25.035156 6.34375 -26.484375 C 8.945312 -27.929688 12.332031 -28.65625 16.5 -28.65625 Z M 16.5 -28.65625 "/></g></g></g><g fill="#ffffff" fill-opacity="1"><g transform="translate(195.036615, 54.596305)"><g><path d="M 19.265625 -37.15625 C 23.941406 -37.15625 27.78125 -36.207031 30.78125 -34.3125 C 33.789062 -32.414062 35.332031 -29.613281 35.40625 -25.90625 L 35.40625 -25.265625 L 24.421875 -25.265625 L 24.421875 -25.484375 C 24.421875 -26.535156 24.03125 -27.414062 23.25 -28.125 C 22.46875 -28.832031 21.28125 -29.1875 19.6875 -29.1875 C 18.132812 -29.1875 16.941406 -28.957031 16.109375 -28.5 C 15.273438 -28.039062 14.859375 -27.472656 14.859375 -26.796875 C 14.859375 -25.847656 15.425781 -25.140625 16.5625 -24.671875 C 17.695312 -24.210938 19.519531 -23.738281 22.03125 -23.25 C 24.96875 -22.644531 27.378906 -22.015625 29.265625 -21.359375 C 31.160156 -20.703125 32.816406 -19.628906 34.234375 -18.140625 C 35.648438 -16.660156 36.375 -14.648438 36.40625 -12.109375 C 36.40625 -7.785156 34.945312 -4.578125 32.03125 -2.484375 C 29.113281 -0.398438 25.210938 0.640625 20.328125 0.640625 C 14.628906 0.640625 10.195312 -0.3125 7.03125 -2.21875 C 3.863281 -4.132812 2.28125 -7.519531 2.28125 -12.375 L 13.375 -12.375 C 13.375 -10.53125 13.847656 -9.296875 14.796875 -8.671875 C 15.753906 -8.054688 17.242188 -7.75 19.265625 -7.75 C 20.753906 -7.75 21.984375 -7.90625 22.953125 -8.21875 C 23.929688 -8.539062 24.421875 -9.195312 24.421875 -10.1875 C 24.421875 -11.070312 23.878906 -11.734375 22.796875 -12.171875 C 21.710938 -12.617188 19.953125 -13.09375 17.515625 -13.59375 C 14.546875 -14.226562 12.085938 -14.890625 10.140625 -15.578125 C 8.191406 -16.265625 6.488281 -17.40625 5.03125 -19 C 3.582031 -20.59375 2.859375 -22.753906 2.859375 -25.484375 C 2.859375 -29.472656 4.40625 -32.414062 7.5 -34.3125 C 10.601562 -36.207031 14.523438 -37.15625 19.265625 -37.15625 Z M 19.265625 -37.15625 "/></g></g></g><g fill="#ffffff" fill-opacity="1"><g transform="translate(230.327567, 54.596305)"><g><path d="M 22.5 -28.65625 C 25.757812 -28.65625 28.203125 -27.753906 29.828125 -25.953125 C 31.453125 -24.148438 32.265625 -21.550781 32.265625 -18.15625 L 32.265625 0 L 21.703125 0 L 21.703125 -16.875 C 21.703125 -18.082031 21.390625 -19.046875 20.765625 -19.765625 C 20.148438 -20.492188 19.28125 -20.859375 18.15625 -20.859375 C 16.84375 -20.859375 15.78125 -20.429688 14.96875 -19.578125 C 14.15625 -18.734375 13.75 -17.691406 13.75 -16.453125 L 13.75 0 L 3.1875 0 L 3.1875 -28.03125 L 11.84375 -28.03125 L 12.53125 -23.78125 C 13.625 -25.269531 15.0625 -26.453125 16.84375 -27.328125 C 18.632812 -28.210938 20.519531 -28.65625 22.5 -28.65625 Z M 22.5 -28.65625 "/></g></g></g><g fill="#ffffff" fill-opacity="1"><g transform="translate(262.699677, 54.596305)"><g><path d="M 17.03125 -28.65625 C 21.3125 -28.65625 24.796875 -27.9375 27.484375 -26.5 C 30.179688 -25.070312 31.53125 -22.75 31.53125 -19.53125 L 31.53125 -8.59375 C 31.53125 -8 31.671875 -7.503906 31.953125 -7.109375 C 32.234375 -6.722656 32.660156 -6.53125 33.234375 -6.53125 L 35.140625 -6.53125 L 35.140625 -0.421875 C 35.035156 -0.347656 34.757812 -0.234375 34.3125 -0.078125 C 33.875 0.078125 33.242188 0.234375 32.421875 0.390625 C 31.609375 0.554688 30.675781 0.640625 29.625 0.640625 C 27.570312 0.640625 25.878906 0.332031 24.546875 -0.28125 C 23.222656 -0.90625 22.3125 -1.765625 21.8125 -2.859375 C 20.46875 -1.804688 18.960938 -0.957031 17.296875 -0.3125 C 15.640625 0.320312 13.695312 0.640625 11.46875 0.640625 C 4.882812 0.640625 1.59375 -1.976562 1.59375 -7.21875 C 1.59375 -9.945312 2.328125 -12.023438 3.796875 -13.453125 C 5.265625 -14.890625 7.378906 -15.875 10.140625 -16.40625 C 12.898438 -16.9375 16.507812 -17.203125 20.96875 -17.203125 L 20.96875 -18.578125 C 20.96875 -19.671875 20.585938 -20.5 19.828125 -21.0625 C 19.066406 -21.632812 18.082031 -21.921875 16.875 -21.921875 C 15.78125 -21.921875 14.832031 -21.722656 14.03125 -21.328125 C 13.238281 -20.941406 12.84375 -20.328125 12.84375 -19.484375 L 12.84375 -19.265625 L 2.4375 -19.265625 C 2.40625 -19.441406 2.390625 -19.691406 2.390625 -20.015625 C 2.390625 -22.660156 3.65625 -24.757812 6.1875 -26.3125 C 8.71875 -27.875 12.332031 -28.65625 17.03125 -28.65625 Z M 20.96875 -12.203125 C 17.957031 -12.203125 15.734375 -11.875 14.296875 -11.21875 C 12.867188 -10.570312 12.15625 -9.695312 12.15625 -8.59375 C 12.15625 -6.820312 13.359375 -5.9375 15.765625 -5.9375 C 17.140625 -5.9375 18.347656 -6.304688 19.390625 -7.046875 C 20.441406 -7.796875 20.96875 -8.71875 20.96875 -9.8125 Z M 20.96875 -12.203125 "/></g></g></g><g fill="#ffffff" fill-opacity="1"><g transform="translate(295.071777, 54.596305)"><g><path d="M 21.65625 -28.65625 C 25.4375 -28.65625 28.351562 -27.414062 30.40625 -24.9375 C 32.46875 -22.46875 33.5 -18.804688 33.5 -13.953125 C 33.5 -9.140625 32.46875 -5.503906 30.40625 -3.046875 C 28.351562 -0.585938 25.4375 0.640625 21.65625 0.640625 C 18.394531 0.640625 15.773438 -0.421875 13.796875 -2.546875 L 13.796875 10.453125 L 3.234375 10.453125 L 3.234375 -28.03125 L 11.84375 -28.03125 L 12.734375 -24.046875 C 14.785156 -27.117188 17.757812 -28.65625 21.65625 -28.65625 Z M 18.359375 -20.859375 C 16.804688 -20.859375 15.640625 -20.304688 14.859375 -19.203125 C 14.078125 -18.109375 13.6875 -16.679688 13.6875 -14.921875 L 13.6875 -13.15625 C 13.6875 -11.394531 14.078125 -9.957031 14.859375 -8.84375 C 15.640625 -7.726562 16.804688 -7.171875 18.359375 -7.171875 C 21.410156 -7.171875 22.9375 -8.988281 22.9375 -12.625 L 22.9375 -15.453125 C 22.9375 -19.054688 21.410156 -20.859375 18.359375 -20.859375 Z M 18.359375 -20.859375 "/></g></g></g><g fill="#ffffff" fill-opacity="1"><g transform="translate(327.443877, 54.596305)"><g><path d="M 3.234375 0 L 3.234375 -10.5625 L 14.484375 -10.5625 L 14.484375 0 Z M 3.234375 0 "/></g></g></g><path fill="#ffffff" d="M 35.292969 74.226562 C 36.59375 73.605469 37.632812 72.59375 38.5 71.496094 C 40.226562 69.269531 41.351562 66.679688 42.261719 64.054688 C 43.164062 61.417969 43.816406 58.699219 44.316406 55.96875 L 44.320312 55.960938 C 44.402344 55.492188 44.160156 55.027344 43.761719 54.90625 C 43.355469 54.785156 42.941406 55.074219 42.835938 55.550781 C 42.257812 58.191406 41.542969 60.773438 40.609375 63.226562 C 39.671875 65.664062 38.519531 68.011719 37.003906 69.808594 C 36.25 70.695312 35.394531 71.425781 34.496094 71.804688 C 33.597656 72.191406 32.664062 72.203125 31.785156 71.855469 C 30.902344 71.511719 30.078125 70.8125 29.347656 69.945312 C 28.617188 69.074219 27.980469 68.039062 27.417969 66.933594 C 26.296875 64.710938 25.464844 62.226562 24.800781 59.683594 C 24.144531 57.132812 23.660156 54.503906 23.308594 51.851562 C 22.609375 46.539062 22.417969 41.117188 22.640625 35.742188 C 22.65625 35.347656 22.675781 34.949219 22.695312 34.554688 C 22.839844 34.535156 22.980469 34.515625 23.125 34.496094 C 28.4375 33.796875 33.855469 33.605469 39.234375 33.824219 C 44.605469 34.050781 49.960938 34.691406 55.050781 35.902344 C 57.589844 36.511719 60.066406 37.269531 62.34375 38.230469 C 63.476562 38.710938 64.558594 39.246094 65.53125 39.839844 C 66.503906 40.429688 67.371094 41.085938 68.003906 41.769531 C 68.640625 42.453125 69.011719 43.144531 69.089844 43.746094 C 69.109375 43.886719 69.117188 44.074219 69.109375 44.171875 L 69.101562 44.285156 L 69.101562 44.339844 L 69.09375 44.355469 C 69.089844 44.378906 69.089844 44.386719 69.082031 44.417969 C 69.070312 44.492188 69.054688 44.566406 69.035156 44.640625 C 68.953125 44.941406 68.8125 45.246094 68.597656 45.566406 C 68.171875 46.199219 67.464844 46.851562 66.601562 47.445312 C 65.734375 48.039062 64.722656 48.582031 63.644531 49.0625 C 61.476562 50.023438 59.050781 50.761719 56.566406 51.34375 C 55.980469 51.480469 55.394531 51.601562 54.804688 51.722656 L 53.785156 46.820312 L 44.726562 57.238281 L 56.980469 62.179688 L 55.980469 57.371094 C 56.804688 57.183594 57.628906 56.984375 58.453125 56.761719 C 61.25 56.003906 64.023438 55.070312 66.699219 53.769531 C 68.035156 53.113281 69.347656 52.363281 70.589844 51.4375 C 71.824219 50.511719 73.011719 49.402344 73.894531 47.957031 C 74.328125 47.238281 74.671875 46.433594 74.847656 45.574219 C 74.890625 45.359375 74.925781 45.148438 74.949219 44.925781 C 74.960938 44.8125 74.96875 44.675781 74.976562 44.550781 L 74.980469 44.457031 L 74.980469 44.292969 C 74.984375 43.808594 74.9375 43.40625 74.851562 42.96875 C 74.5 41.234375 73.488281 39.792969 72.363281 38.683594 C 71.222656 37.5625 69.945312 36.699219 68.640625 35.964844 C 67.332031 35.234375 65.988281 34.636719 64.625 34.113281 C 61.902344 33.074219 59.117188 32.339844 56.3125 31.761719 C 50.707031 30.632812 45.023438 30.152344 39.359375 30.101562 C 33.855469 30.058594 28.347656 30.425781 22.925781 31.296875 C 23.265625 27.429688 23.84375 23.609375 24.71875 19.921875 C 25.328125 17.382812 26.082031 14.90625 27.042969 12.632812 C 27.527344 11.5 28.058594 10.414062 28.652344 9.441406 C 29.246094 8.472656 29.902344 7.609375 30.585938 6.972656 C 31.269531 6.332031 31.957031 5.964844 32.5625 5.882812 C 32.703125 5.863281 32.886719 5.855469 32.988281 5.867188 L 33.097656 5.875 L 33.152344 5.875 L 33.171875 5.878906 C 33.191406 5.886719 33.203125 5.886719 33.234375 5.890625 C 33.308594 5.90625 33.382812 5.921875 33.457031 5.941406 C 33.753906 6.023438 34.0625 6.164062 34.378906 6.375 C 35.011719 6.804688 35.667969 7.511719 36.261719 8.375 C 36.851562 9.238281 37.394531 10.25 37.875 11.332031 C 38.839844 13.5 39.574219 15.921875 40.160156 18.414062 C 40.292969 18.992188 40.417969 19.582031 40.535156 20.171875 L 35.632812 21.1875 L 46.054688 30.25 L 50.992188 17.996094 L 46.1875 18.996094 C 45.996094 18.167969 45.796875 17.34375 45.578125 16.523438 C 44.816406 13.726562 43.882812 10.953125 42.582031 8.277344 C 41.929688 6.941406 41.175781 5.628906 40.253906 4.386719 C 39.324219 3.15625 38.21875 1.960938 36.773438 1.082031 C 36.054688 0.648438 35.246094 0.304688 34.390625 0.125 C 34.175781 0.0859375 33.960938 0.0507812 33.742188 0.0273438 C 33.628906 0.015625 33.492188 0.00390625 33.367188 0 L 33.273438 -0.00390625 L 33.109375 -0.00390625 C 32.625 -0.0117188 32.21875 0.0390625 31.78125 0.121094 C 30.050781 0.472656 28.605469 1.484375 27.496094 2.613281 C 26.375 3.75 25.511719 5.03125 24.78125 6.335938 C 24.050781 7.640625 23.449219 8.988281 22.925781 10.351562 C 21.890625 13.074219 21.152344 15.859375 20.578125 18.660156 C 19.683594 23.085938 19.199219 27.558594 19.007812 32.027344 C 17.402344 32.371094 15.808594 32.765625 14.230469 33.230469 C 11.535156 34.035156 8.878906 35.015625 6.40625 36.378906 C 5.171875 37.066406 3.988281 37.847656 2.929688 38.804688 C 1.886719 39.757812 0.949219 40.90625 0.480469 42.28125 C -0.00390625 43.648438 0.113281 45.191406 0.75 46.480469 C 1.371094 47.777344 2.382812 48.820312 3.480469 49.6875 C 5.707031 51.410156 8.296875 52.539062 10.921875 53.449219 C 13.554688 54.347656 16.277344 55.003906 19.007812 55.503906 L 19.015625 55.503906 C 19.480469 55.589844 19.949219 55.347656 20.070312 54.949219 C 20.191406 54.542969 19.902344 54.125 19.425781 54.023438 C 16.78125 53.445312 14.199219 52.726562 11.75 51.792969 C 9.316406 50.859375 6.964844 49.707031 5.167969 48.191406 C 4.28125 47.4375 3.550781 46.582031 3.171875 45.679688 C 2.785156 44.78125 2.769531 43.851562 3.121094 42.972656 C 3.464844 42.089844 4.160156 41.261719 5.03125 40.535156 C 5.902344 39.804688 6.9375 39.164062 8.042969 38.605469 C 10.265625 37.484375 12.746094 36.652344 15.289062 35.988281 C 16.484375 35.679688 17.695312 35.410156 18.921875 35.175781 C 18.917969 35.320312 18.914062 35.46875 18.914062 35.613281 C 18.871094 41.273438 19.257812 46.929688 20.179688 52.5 C 20.648438 55.28125 21.246094 58.039062 22.046875 60.742188 C 22.847656 63.4375 23.832031 66.09375 25.195312 68.570312 C 25.878906 69.800781 26.660156 70.988281 27.617188 72.042969 C 28.570312 73.089844 29.722656 74.027344 31.097656 74.496094 C 32.460938 74.980469 34.007812 74.863281 35.292969 74.226562 " fill-opacity="1" fill-rule="nonzero"/></svg>